<?xml version="1.0" encoding="UTF-8"?> <svg xmlns="http://www.w3.org/2000/svg" xmlns:xlink="http://www.w3.org/1999/xlink" width="230.753" height="68.303" viewBox="0 0 230.753 68.303"><defs><clipPath id="a"><rect width="230.753" height="68.303" fill="none"></rect></clipPath></defs><g transform="translate(0 0)"><path d="M6.843,11.73,0,18.574V28.25L6.843,35.1H16.52l6.843-6.845V18.574L16.52,11.73Z" transform="translate(0 11.159)" fill="#006b86"></path><g transform="translate(0 0)"><g clip-path="url(#a)"><path d="M16.63,27.114,18.265,27c1.163-.072,1.6-.326,1.6-1.561V3.431c0-1.237-.435-1.489-1.6-1.563L16.63,1.759V.67h11.7c6.646,0,11.915,1.452,11.915,7.337s-5.268,7.665-11.915,7.665H25.493v-1.38h2.544c4.65,0,6.974-1.744,6.974-6.1s-2.324-6.174-6.974-6.174H24.585V25.444c0,1.235.435,1.454,1.635,1.489l3.015.109V28.2H16.63Z" transform="translate(15.82 0.637)" fill="#006b86"></path><path d="M30.121,27.86l1.126-.072c1.2-.072,1.417-.181,1.417-1.344V14.929l-2.726-2.035v-.217l7.085-2.833v16.6c0,1.163.217,1.272,1.417,1.344l1.124.072v.981H30.121ZM34.806,0A2.909,2.909,0,0,1,37.64,2.833a2.833,2.833,0,1,1-5.667,0A2.935,2.935,0,0,1,34.806,0" transform="translate(28.48 -0.001)" fill="#006b86"></path><path d="M36.377,23.061l1.126-.074c1.235-.072,1.417-.18,1.417-1.342V10.13L36.2,8.095V7.876l7.083-2.831V9.874a5.658,5.658,0,0,1,5.776-4.685c3.268,0,5.413,1.78,5.413,7.011v9.444c0,1.163.181,1.27,1.417,1.342l1.126.074v.98H47.748v-.98l.981-.074c1.233-.107,1.38-.18,1.38-1.342V13.036c0-4.106-1.2-5.231-3.233-5.231-1.924,0-3.6,1.235-3.6,5.267v8.574c0,1.163.109,1.235,1.382,1.342l.944.074v.98H36.377Z" transform="translate(34.433 4.798)" fill="#006b86"></path><path d="M48.135,19.5c0-3.343,3.85-4.433,6.683-5.413,4-1.417,4.322-2.724,4.322-4.468a3.194,3.194,0,0,0-3.413-3.305c-2.652,0-4.106,2.07-3.268,5.413a9.388,9.388,0,0,1-1.854.181c-1.889,0-2.689-.872-2.689-1.854,0-1.126,1.707-2.361,3.924-3.378a14.939,14.939,0,0,1,6.211-1.561c3.161,0,5.267,1.2,5.194,5.122l-.181,11.915,2.615-.109v.98L59.323,24.3l-.291-3.67a4.933,4.933,0,0,1-5.085,3.78c-3.415,0-5.813-2.217-5.813-4.9m10.789-1.563L59,12.71a16.486,16.486,0,0,1-2.507,1.635C54.31,15.617,53,16.852,53,18.995c0,1.78.982,3.6,2.833,3.6,1.454,0,3.052-1.272,3.089-4.65" transform="translate(45.582 4.869)" fill="#006b86"></path><path d="M58.071,14.926a9.684,9.684,0,0,1,9.954-9.807c3.487,0,6.9,1.524,6.9,4.178,0,1.38-1.091,2.287-2.907,2.287a7.247,7.247,0,0,1-1.233-.109c0-3.741-1.528-5.267-3.705-5.267-2.289,0-4.468,1.963-4.506,6.539-.072,4.759,2.4,8.791,6.648,8.791a5.869,5.869,0,0,0,5.922-4.722h.942c-.907,5.157-4.178,7.592-8.753,7.592-5.557,0-9.263-3.959-9.263-9.481" transform="translate(55.242 4.869)" fill="#006b86"></path><path d="M68.7,14.891a9.7,9.7,0,0,1,9.952-9.772A9.49,9.49,0,0,1,88.5,14.635a9.677,9.677,0,0,1-9.952,9.772A9.491,9.491,0,0,1,68.7,14.891m14.82-.146c0-6.211-2.289-8.428-4.9-8.428-2.689,0-4.976,2.217-4.976,8.428,0,6.176,2.287,8.428,4.976,8.428,2.615,0,4.9-2.252,4.9-8.428" transform="translate(65.354 4.869)" fill="#006b86"></path><path d="M90.384,23.93a5.387,5.387,0,0,0,3.015-.8l.472.87a10.862,10.862,0,0,1-5.994,1.889c-3.124,0-4.576-.907-4.576-4.031V9.691H79.486V9.473L87.4,3.406h.256V7.365h7.446L93.652,9.691H87.66V20.806c0,2.361,1.089,3.124,2.724,3.124" transform="translate(75.614 3.239)" fill="#006b86"></path><path d="M87.637,14.856a9.44,9.44,0,0,1,9.3-9.737c4,0,7.555,2.182,8.644,7.192h-13.4v.546c0,5.048,2.689,8.681,6.792,8.681a6.277,6.277,0,0,0,6.285-4.724h.944c-.944,5.122-4.322,7.594-8.937,7.594-5.883,0-9.626-3.852-9.626-9.553m4.65-3.815h8.246c-.109-3.052-1.307-4.9-3.743-4.9-2.287,0-4.031,1.705-4.5,4.9" transform="translate(83.368 4.869)" fill="#006b86"></path><path d="M98.629,14.926a9.684,9.684,0,0,1,9.954-9.807c3.487,0,6.9,1.524,6.9,4.178,0,1.38-1.091,2.287-2.907,2.287a7.247,7.247,0,0,1-1.233-.109c0-3.741-1.528-5.267-3.705-5.267-2.289,0-4.468,1.963-4.506,6.539-.072,4.759,2.4,8.791,6.648,8.791a5.869,5.869,0,0,0,5.922-4.722h.942c-.907,5.157-4.178,7.592-8.753,7.592-5.557,0-9.263-3.959-9.263-9.481" transform="translate(93.824 4.869)" fill="#006b86"></path><path d="M109.373,19.5c0-3.343,3.85-4.433,6.683-5.413,4-1.417,4.322-2.724,4.322-4.468a3.194,3.194,0,0,0-3.413-3.305c-2.652,0-4.105,2.07-3.268,5.413a9.388,9.388,0,0,1-1.854.181c-1.889,0-2.689-.872-2.689-1.854,0-1.126,1.707-2.361,3.924-3.378a14.939,14.939,0,0,1,6.211-1.561c3.161,0,5.267,1.2,5.194,5.122L124.3,22.156l2.615-.109v.98L120.561,24.3l-.291-3.67a4.933,4.933,0,0,1-5.085,3.78c-3.415,0-5.813-2.217-5.813-4.9m10.789-1.563.072-5.231a16.487,16.487,0,0,1-2.507,1.635c-2.178,1.272-3.487,2.507-3.487,4.65,0,1.78.981,3.6,2.833,3.6,1.454,0,3.052-1.272,3.089-4.65" transform="translate(103.837 4.869)" fill="#006b86"></path><path d="M16.445,39.65c0-5.665,3.705-9.626,8.5-9.626a6.017,6.017,0,0,1,4.576,2.035V24.611l-3.378-1.887v-.219l7.737-2.543V46.988l2.726-.109v.98L29.521,49.24V46.879a6.778,6.778,0,0,1-5.229,2.435c-4.324,0-7.846-3.561-7.846-9.665m10.1,7.592a3.984,3.984,0,0,0,2.978-1.163V32.931a3.835,3.835,0,0,0-2.905-1.2c-3.087,0-5.3,3.052-5.3,7.883,0,4.468,2.18,7.628,5.231,7.628" transform="translate(15.644 18.99)" fill="#006b86"></path><path d="M28.282,47.86l1.126-.072c1.2-.072,1.417-.181,1.417-1.344V34.929L28.1,32.894v-.217l7.085-2.833v16.6c0,1.163.217,1.272,1.415,1.344l1.126.072v.981H28.282ZM32.967,20a2.851,2.851,0,0,1,0,5.7,2.851,2.851,0,0,1,0-5.7" transform="translate(26.73 19.025)" fill="#006b86"></path><path d="M39.751,47.114l1.635-.107c1.161-.072,1.6-.328,1.6-1.563V23.431c0-1.235-.437-1.489-1.6-1.563l-1.635-.107V20.67H51.158c6.5,0,10.605,1.672,10.605,6.176,0,3.6-2.978,6.067-7.881,6.646v.074c5.992.037,9.952,2.143,9.952,6.611,0,4.939-4.285,8.028-11.587,8.028h-12.5Zm11.37-14.164c3.887,0,5.7-2.072,5.7-5.522,0-3.633-1.887-5.413-6.029-5.413H47.706V32.949ZM51.084,46.86c4.941,0,7.555-1.707,7.555-6.32s-2.8-6.248-7.337-6.248h-3.6V46.86Z" transform="translate(37.815 19.662)" fill="#006b86"></path><path d="M53.45,43.061l1.126-.074c1.235-.072,1.417-.18,1.417-1.342V30.13l-2.724-2.035v-.219l7.083-2.831v5.992c.944-4.068,3.487-5.594,6.5-5.594h.326v4.4l-1.635-.219c-4.031-.544-5.194,1.089-5.194,3.2v8.828c0,1.163.291,1.2,1.526,1.27l1.926.109v1.017H53.45Z" transform="translate(50.674 23.824)" fill="#006b86"></path><path d="M61.521,34.856a9.44,9.44,0,0,1,9.3-9.737c4,0,7.555,2.182,8.644,7.192h-13.4v.546c0,5.048,2.689,8.681,6.792,8.681a6.277,6.277,0,0,0,6.285-4.724h.944c-.944,5.122-4.322,7.594-8.937,7.594-5.883,0-9.626-3.852-9.626-9.553m4.65-3.815h8.246c-.109-3.052-1.307-4.9-3.743-4.9-2.287,0-4.031,1.705-4.5,4.9" transform="translate(58.524 23.895)" fill="#006b86"></path><path d="M72.207,43.061l1.126-.074c1.235-.072,1.417-.18,1.417-1.342V30.13l-2.724-2.035v-.219l7.083-2.831v5.992c.944-4.068,3.487-5.594,6.5-5.594h.328v4.4L84.3,29.621c-4.031-.544-5.194,1.089-5.194,3.2v8.828c0,1.163.291,1.2,1.526,1.27l1.926.109v1.017H72.207Z" transform="translate(68.517 23.824)" fill="#006b86"></path><path d="M80.771,39.5c0-3.343,3.85-4.433,6.683-5.413,4-1.417,4.322-2.724,4.322-4.468a3.194,3.194,0,0,0-3.413-3.305c-2.652,0-4.105,2.07-3.268,5.413a9.388,9.388,0,0,1-1.854.181c-1.889,0-2.689-.872-2.689-1.854,0-1.126,1.707-2.361,3.924-3.378a14.939,14.939,0,0,1,6.211-1.561c3.161,0,5.267,1.2,5.194,5.122L95.7,42.156l2.615-.109v.98L91.959,44.3l-.291-3.67a4.933,4.933,0,0,1-5.085,3.78c-3.415,0-5.813-2.217-5.813-4.9m10.789-1.563.072-5.231a16.487,16.487,0,0,1-2.507,1.635c-2.178,1.272-3.487,2.507-3.487,4.65,0,1.78.981,3.6,2.833,3.6,1.454,0,3.052-1.272,3.089-4.65" transform="translate(76.628 23.895)" fill="#006b86"></path><rect width="2.373" height="16.352" transform="translate(10.496 51.518)" fill="#006b86"></rect><rect width="2.373" height="16.35" transform="translate(10.496 1.3)" fill="#006b86"></rect></g></g></g></svg> 